PathFileType	4	(X/Y/Z)	C:/Users/opensim2020/Desktop/walking_exp_matlab/subject01_walking09_straight_01.trc																																																																																																																															
DataRate	CameraRate	NumFrames	NumMarkers	Units	OrigDataRate	OrigDataStartFrame	OrigNumFrames																																																																																																																											
100	100	4	43	mm	100	832	485																																																																																																																											
Frame#	Time	LFHD			RFHD			LBHD			RBHD			C7			T10			CLAV			STRN			RBAK			LSHO			LUPA			LELB			LFRM			LWRA			LWRB			LFIN			RSHO			RUPA			RELB			RFRM			RWRA			RWRB			RFIN			LASI			RASI			LPSI			RPSI			LTHI			LKNE			LTIB			LANK			LHEE			LTOE			RTHI			RKNE			RTIB			RANK			RHEE			RTOE			*39			*40			*41			*42		
		X1	Y1	Z1	X2	Y2	Z2	X3	Y3	Z3	X4	Y4	Z4	X5	Y5	Z5	X6	Y6	Z6	X7	Y7	Z7	X8	Y8	Z8	X9	Y9	Z9	X10	Y10	Z10	X11	Y11	Z11	X12	Y12	Z12	X13	Y13	Z13	X14	Y14	Z14	X15	Y15	Z15	X16	Y16	Z16	X17	Y17	Z17	X18	Y18	Z18	X19	Y19	Z19	X20	Y20	Z20	X21	Y21	Z21	X22	Y22	Z22	X23	Y23	Z23	X24	Y24	Z24	X25	Y25	Z25	X26	Y26	Z26	X27	Y27	Z27	X28	Y28	Z28	X29	Y29	Z29	X30	Y30	Z30	X31	Y31	Z31	X32	Y32	Z32	X33	Y33	Z33	X34	Y34	Z34	X35	Y35	Z35	X36	Y36	Z36	X37	Y37	Z37	X38	Y38	Z38	X39	Y39	Z39	X40	Y40	Z40	X41	Y41	Z41	X42	Y42	Z42	X43	Y43	Z43
																																																																																																																																		
61	0.6	-1062.28442	1664.01074	-1096.56348	-1053.51563	1677.50635	-983.55505	-1158.25867	1583.48047	-1088.42542	-1151.50488	1595.18359	-968.35437	-1156.87085	1422.3208	-1038.29749	-1193.13867	1128.85095	-1017.47235	-1009.91107	1353.47913	-1034.08313	-970.2572	1197.41467	-1032.11609	-1212.51746	1231.63806	-951.46796	-1072.78918	1379.62195	-1195.88892	-1114.0542	1193.29138	-1272.0238	-1137.44226	1044.28674	-1264.1698	-1108.01819	933.27399	-1285.03662	-1039.46851	812.78107	-1263.02087	-1094.11475	811.86798	-1288.19299	-1052.93018	737.97528	-1294.91077	-1074.76282	1386.30322	-883.92853	-1114.38159	1186.26843	-774.45483	-1101.24902	1061.00806	-769.52051	-1053.68982	948.30322	-746.42841	-960.47949	844.76434	-779.53888	-999.10217	839.12201	-735.82758	-950.34296	769.23578	-741.64105	-1011.77417	922.91125	-1112.82739	-1029.18884	916.45746	-895.89227	-1203.35303	937.04303	-1077.00256	-1211.47705	939.2807	-932.75519	-983.39819	605.88361	-1180.047	-967.65613	473.13351	-1162.38147	-983.15942	283.89856	-1177.0863	-962.02649	64.37016	-1128.06091	-1002.32837	33.39404	-1074.31885	-813.59393	38.74098	-1129.22925	-1141.09534	591.21704	-853.55481	-1164.68311	432.95151	-880.3772	-1265.60583	287.70572	-875.30725	-1349.08508	97.02242	-924.78375	-1404.9165	70.63793	-976.24554	-1221.40308	28.44921	-928.30243	-1075.95056	1704.71851	-1007.21808	1973.1449	1023.45673	-3102.02319	2012.49976	1022.00873	-3140.73462	NaN	NaN	NaN
62	0.61	-1056.73499	1665.03662	-1098.81531	-1048.26343	1678.48914	-985.8924	-1152.79028	1584.67346	-1090.94287	-1146.28369	1596.33179	-970.88171	-1151.61877	1423.23071	-1040.79712	-1186.8656	1129.5675	-1019.3064	-1004.55719	1354.63953	-1036.62927	-964.21661	1198.69226	-1034.34875	-1206.65479	1232.41431	-953.55103	-1067.32251	1380.59253	-1198.33093	-1107.9054	1194.03992	-1274.17053	-1130.93115	1045.09143	-1266.12537	-1101.27185	934.22449	-1286.86511	-1032.2345	813.9599	-1265.16687	-1087.04468	812.80505	-1289.90442	-1045.36743	739.01654	-1296.547	-1069.15002	1387.77869	-886.45715	-1109.39526	1187.75977	-776.73322	-1096.49634	1062.51514	-771.85699	-1050.03003	949.7218	-748.41937	-957.29608	845.30042	-781.6709	-995.66351	840.12079	-737.45441	-947.28076	769.84753	-743.13971	-1005.37592	923.92554	-1114.75623	-1022.55151	917.62115	-897.90216	-1196.78625	938.11938	-1078.40967	-1204.70471	940.7995	-934.19299	-977.96387	606.05084	-1181.18774	-962.88031	473.28983	-1163.21436	-979.81732	284.02603	-1177.61719	-961.35522	64.43569	-1128.05554	-1002.30249	33.5574	-1074.38074	-812.99054	37.90213	-1128.44287	-1134.35999	592.28351	-854.72107	-1157.604	433.99417	-880.56665	-1261.06396	290.09988	-875.5437	-1346.61572	100.31207	-924.75891	-1402.62292	74.29645	-976.11078	-1220.94714	28.43819	-928.09357	-1070.83289	1705.27161	-1010.04218	1973.15027	1023.50433	-3101.91211	2012.57275	1022.14069	-3140.70459	NaN	NaN	NaN
63	0.62	-1051.22168	1666.08313	-1101.18469	-1042.84265	1679.4906	-988.29224	-1147.37708	1585.8634	-1093.45593	-1141.01306	1597.49084	-973.38031	-1146.12329	1423.77246	-1043.29407	-1180.68213	1130.33911	-1021.22589	-999.38721	1355.84644	-1039.10938	-958.33014	1199.96948	-1036.50537	-1200.75549	1233.21289	-955.62421	-1061.89563	1381.58191	-1200.7218	-1102.10266	1195.01453	-1276.74561	-1124.24438	1045.93909	-1267.98682	-1094.60059	935.27393	-1288.80835	-1025.07251	815.21924	-1267.50537	-1080.31506	813.67596	-1291.69019	-1038.0802	740.27228	-1299.05847	-1064.05945	1389.1145	-889.03278	-1104.42798	1189.33032	-778.91705	-1091.86902	1064.14038	-774.03784	-1045.43384	950.90167	-750.34583	-953.81104	845.96631	-783.41766	-992.22205	840.99213	-739.12592	-944.42175	770.44934	-744.69348	-998.81738	924.93494	-1116.91528	-1016.01074	918.87921	-900.00842	-1190.29321	939.16669	-1080.0603	-1198.0166	942.39459	-935.83258	-972.85559	606.18469	-1182.28284	-958.50464	473.30161	-1163.97021	-976.53735	284.07394	-1178	-960.80396	64.49313	-1127.96716	-1002.10876	33.63611	-1074.56445	-812.46014	37.12571	-1127.8092	-1127.1239	593.08795	-855.74622	-1150.39795	434.72342	-880.95325	-1256.36548	292.52301	-875.61902	-1344.85449	103.79666	-924.41254	-1400.7594	79.38697	-975.99915	-1220.5166	28.54728	-928.08453	-1065.02991	1706.9165	-1011.97723	1973.08362	1023.56976	-3101.90527	2012.50415	1022.03601	-3140.64038	NaN	NaN	NaN
64	0.63	-1045.67529	1667.00671	-1103.38904	-1037.51746	1680.59058	-990.46381	-1142.00623	1587.01172	-1095.9126	-1135.80981	1598.59534	-975.83112	-1140.68591	1424.52063	-1045.73779	-1174.54736	1131.06824	-1023.28174	-993.99713	1357.05334	-1041.54529	-952.48499	1201.26563	-1038.71082	-1194.92944	1234.01294	-957.61938	-1056.58887	1382.66455	-1203.12158	-1096.05347	1195.7832	-1278.76367	-1117.59167	1046.94299	-1269.93225	-1087.80908	936.16211	-1290.71436	-1018.00128	816.44275	-1269.99292	-1073.54639	814.47607	-1293.27393	-1030.94641	741.17206	-1301.10083	-1058.89978	1390.15027	-891.31091	-1099.49573	1190.9552	-780.93451	-1087.30042	1065.62244	-776.35071	-1041.5022	952.22955	-752.27997	-950.27307	846.61346	-784.81036	-988.90533	842.20282	-740.66986	-941.3808	771.02808	-746.30542	-992.32111	925.84058	-1119.13208	-1009.5152	920.09857	-902.21014	-1183.80408	940.14893	-1081.85632	-1191.39673	943.89429	-937.72662	-968.27716	606.07733	-1183.1991	-954.38904	473.12875	-1164.6394	-973.47272	284.02271	-1178.17773	-960.29437	64.39851	-1127.76672	-1002.02997	33.59017	-1074.48975	-811.95386	36.48547	-1127.06006	-1119.69446	593.96497	-856.48865	-1142.5321	435.31326	-880.9624	-1250.55725	294.60056	-875.89288	-1341.83838	107.08956	-924.20721	-1398.47925	84.05629	-975.9292	-1220.12708	28.49533	-927.97272	-1059.56897	1708.00159	-1014.25513	1973.13806	1023.62592	-3101.95972	2012.50012	1022.02106	-3140.66602	NaN	NaN	NaN
